<svg version="1.1" xmlns="http://www.w3.org/2000/svg" viewBox="0 0 100 100">
    <defs>
        <radialGradient id="sun-gradient">
            <stop offset="40%" stop-color="gold" />
            <stop offset="70%" stop-color="goldenrod" />
        </radialGradient>
    </defs>
    <circle r="0.5%" cx="49.4%" cy="48.5%" fill="url(#sun-gradient)" /> 

    <path id="Sun" fill="#f9e231" fill-rule="evenodd" stroke="none" d="M 48.575001 47.775002 L 48.125 46.724998 L 48.849998 47.525002 L 48.849998 46.450001 L 49.349998 47.325001 L 49.575001 46.450001 L 49.724998 47.474998 L 50.25 46.549999 L 50.150002 47.525002 L 50.974998 47 L 50.299999 47.825001 L 51.474998 47.700001 L 50.575001 48.375 L 51.549999 48.75 L 50.575001 48.700001 L 51.200001 49.575001 L 50.200001 49.325001 L 50.375 50.349998 L 50 49.575001 L 49.825001 50.474998 L 49.450001 49.625 L 49.174999 50.575001 L 49.125 49.549999 L 48.599998 50.474998 L 48.700001 49.375 L 47.875 49.950001 L 48.400002 49.125 L 47.424999 49.224998 L 48.049999 48.724998 L 48.275002 48.525002 L 47.299999 48.375 L 48.224998 48.174999 L 47.5 47.599998 L 47.525002 47.549999 L 48.575001 47.775002 Z"/>
    <path id="Saturnus-tekst" fill="#ffffff" fill-rule="evenodd" stroke="none"  d="M 24.125 22.224998 C 24.069632 22.28817 25.272982 23.410088 25.325001 23.349998 C 37.798374 8.94136 60.844841 8.594414 73.349998 23.449997 C 73.414757 23.526932 74.604652 22.386307 74.574997 22.349998 C 63.933414 9.318558 39.445568 4.745193 24.125 22.224998 Z"/>
    <path id="Jupiter-tekst" fill="#ffffff" fill-rule="evenodd" stroke="none"  d="M 32.400002 61.450001 C 32.371609 61.413677 31.171255 62.225746 31.225 62.299999 C 39.429291 73.635544 57.04612 77.742485 69.75 64.474998 C 69.859734 64.360397 68.672287 63.323109 68.625 63.375 C 60.129772 72.698021 43.401485 75.525055 32.400002 61.450001 Z"/>
    <path id="Mars-tekst" fill="#ffffff" fill-rule="evenodd" stroke="none" d="M 57.875 46.325001 C 58.200127 46.229942 58.46109 46.157513 58.75 46.049999 C 57.432777 40.308464 46.654621 36.446236 42.375 45.900002 C 42.739563 46.056847 42.980213 46.139019 43.299999 46.25 C 45.229836 40.195923 54.698803 38.633911 57.875 46.325001 Z"/>
    <path id="Aarde-tekst" fill="#ffffff" fill-rule="evenodd" stroke="none" d="M 48.825001 54.224998 C 48.80455 54.283878 48.751148 54.603371 48.724998 54.799999 C 57.461853 54.862949 56.98838 45.003273 52.924999 43.375 C 52.858723 43.447716 52.766365 43.587605 52.700001 43.700001 C 57.803032 47.928253 54.423084 54.498791 48.825001 54.224998 Z"/>
    <path id="Venus-tekst" fill="#ffffff" fill-rule="evenodd" stroke="none"  d="M 47.75 46.325001 C 47.820763 46.406624 47.905071 46.512867 47.974998 46.625 C 46.197914 47.977425 47.384029 50.516426 48.950001 50.724998 C 51.292061 51.036945 51.700001 48.724998 51.700001 48.724998 C 51.700001 48.724998 52.117237 48.675598 52.099998 48.775002 C 52.089985 49.888474 50.203999 52.538704 47.400002 50.275002 C 46.37151 49.444687 46.452477 47.244934 47.75 46.325001 Z"/>
    <path id="Saturnus-baan" fill="#ffffff" fill-rule="evenodd" stroke="none" d="M 62.075539 80.550789 C 62.023994 80.394806 61.964725 80.215469 61.700001 80.349998 C 60.296146 81.063454 57.451099 81.423172 53.876087 82.014511 C 41.753429 84.019714 20.332449 79.423523 13.05 59.900002 C 1.404111 28.678535 26.266138 12.477196 33.924999 9.724998 C 34.009281 9.694717 33.938416 9.583641 33.866028 9.470177 C 33.793007 9.355721 33.718437 9.238838 33.799999 9.200005 C 58.830223 -2.718513 87.516525 17.248512 87.900002 43.25 C 88.108482 57.3862 81.454315 73.492477 62.250004 80.724998 C 62.146046 80.764153 62.112812 80.663582 62.075539 80.550789 Z M 16.6 61.450001 C 3.707025 34.642372 23.025669 15.274811 34.174999 10.25 C 34.329464 10.180389 34.228386 10.095528 34.131069 10.013832 C 34.035667 9.933746 33.943882 9.856689 34.099998 9.800003 C 56.532429 1.655197 79.950539 15.749733 84.349998 38.274998 C 87.379768 53.787483 79.645363 72.250374 61.825001 80 C 61.742573 80.035843 61.710537 79.910706 61.677807 79.782875 C 61.64489 79.654312 61.611275 79.52301 61.525002 79.550003 C 42.04945 85.641548 23.567343 75.936798 16.6 61.450001 Z"/>
    <path id="Jupiter-baan" fill="#ffffff" fill-rule="evenodd" stroke="none" d="M 46.325001 28.275002 C 46.325001 28.275002 43.010494 28.608566 38.049999 31.824997 C 32.45541 35.452576 29.652063 42.001179 29.767864 48.574944 C 29.948986 58.856991 38.048035 69.468262 52.225002 68.525002 C 52.264893 68.522346 52.253479 68.542686 52.233166 68.578888 C 52.202671 68.633232 52.152122 68.72332 52.225002 68.824997 C 60.70171 68.48967 71.469864 61.946053 72.125 49.075001 C 72.688477 38.004719 62.664307 23.941254 46.225002 27.775002 C 46.059475 27.813606 46.325001 28.275002 46.325001 28.275002 Z M 46.436256 28.758919 C 46.511738 28.881241 46.587925 29.0047 46.5 29.025002 C 37.939537 31.001465 31.87443 38.861526 31.775 47.450001 C 31.663809 57.054291 37.72958 67.267792 52.225002 67.75 C 52.313736 67.752953 52.267723 67.893524 52.223534 68.028542 C 52.180622 68.159653 52.139431 68.285507 52.225002 68.275002 C 66.68663 66.499466 69.880074 55.412788 70.324997 48.525002 C 70.995804 38.14043 60.791874 25.719536 46.375 28.5 C 46.286968 28.516983 46.361263 28.637383 46.436256 28.758919 Z"/>
    <path id="Aarde-baan" fill="#ffffff" fill-rule="evenodd" stroke="none" d="M 54.900002 48.474998 C 55.024376 51.122307 51.786633 56.214481 46.174999 52.924999 C 45.10659 51.612389 43.831459 48.767467 45.150002 46.325001 C 46.79998 43.268578 48.767548 43.148212 50 42.950001 C 52.444298 43.241417 54.744507 45.165333 54.900002 48.474998 Z M 49.412498 44.400002 C 51.642349 44.400002 53.450001 46.207649 53.450001 48.4375 C 53.450001 50.667351 51.642349 52.474998 49.412498 52.474998 C 47.182652 52.474998 45.375 50.667351 45.375 48.4375 C 45.375 46.207649 47.182652 44.400002 49.412498 44.400002 Z"/>
    <path id="Mars-baan" fill="#ffffff" fill-rule="evenodd" stroke="none" d="M 45.661282 53.313503 C 45.602684 53.34304 45.544579 53.372326 45.575001 53.400002 C 50.470051 57.853245 55.954151 55.12899 57.200001 50.200001 C 57.883873 47.494362 55.985115 44.168434 53.974998 43.099998 C 53.923767 43.217945 53.897594 43.233795 53.825001 43.375 C 52.901398 42.637077 47.857529 40.296745 44.599998 45.375 C 43.234402 47.503868 43.634647 51.169971 45.75 53.224998 C 45.779675 53.253826 45.720226 53.283791 45.661282 53.313503 Z M 53.799999 43.375 C 53.737438 43.446339 53.704094 43.592751 53.674999 43.775002 C 53.159382 43.405651 49.394722 41.566612 46.325001 44.700001 C 44.406029 46.658772 43.755455 50.275669 46.174999 52.924999 C 46.246967 53.003803 45.924999 53.125 45.924999 53.125 C 45.924999 53.125 46.532078 53.83625 46.924999 54.075001 C 49.559517 55.675785 53.914909 55.064247 55.724998 51.549999 C 56.370178 50.297401 57.326546 47.128746 54.75 44.275002 C 54.45768 43.951233 54.563698 44.036854 53.799999 43.375 Z"/>
    <path id="Venus-baan" fill="#ffffff" fill-rule="evenodd" stroke="none" d="M 50.325001 45.099998 C 50.23547 45.074207 50.275002 45.375 50.275002 45.375 C 51.860737 45.80349 52.508198 47.460003 52.349998 48.924999 C 52.187675 50.428192 50.258739 51.899292 48.700432 51.591373 C 48.625633 51.709686 48.571442 51.728176 48.549999 51.825001 C 51.012493 52.456596 52.536682 50.28698 52.75 49.474998 C 53.351349 47.186028 51.889221 45.55061 50.325001 45.099998 Z M 48.61845 51.527573 C 48.629333 51.500793 48.650913 51.465824 48.672771 51.430408 C 48.716003 51.360352 48.760311 51.288559 48.724998 51.275002 C 47.394958 50.764282 46.658913 50.008823 46.599998 48.924999 C 46.408165 45.395924 49.675438 45.435741 50.224998 45.700001 C 50.246342 45.580555 50.227833 45.416718 50.275002 45.375 C 50.275002 45.375 47.972248 44.63015 46.724998 46.325001 C 45.587833 47.870266 45.653305 50.868382 48.61845 51.527573 Z"/>
    <path id="Sterrenbeelden" fill="#ffffff" fill-rule="evenodd" stroke="none" d="M 49.362503 3.725006 C 74.056534 3.725006 94.075005 23.805031 94.075005 48.575001 C 94.075005 73.344971 74.056534 93.425003 49.362503 93.425003 C 24.668468 93.425003 4.65 73.344971 4.65 48.575001 C 4.65 23.805031 24.668468 3.725006 49.362503 3.725006 Z M 49.337502 5.924995 C 72.885536 5.924995 91.974998 25.014458 91.974998 48.5625 C 91.974998 72.110542 72.885536 91.199997 49.337502 91.199997 C 25.789459 91.199997 6.7 72.110542 6.7 48.5625 C 6.7 25.014458 25.789459 5.924995 49.337502 5.924995 Z"/>
    <path id="Buitenrand" fill="#ffffff" fill-rule="evenodd" stroke="none" d="M 50.012501 0.099998 C 77.371437 0.099998 99.550232 22.357048 99.550232 49.8125 C 99.550232 77.26796 77.371437 99.525002 50.012501 99.525002 C 22.653568 99.525002 0.474774 77.26796 0.474774 49.8125 C 0.474774 22.357048 22.653568 0.099998 50.012501 0.099998 Z M 50.150002 3.474998 C 75.693169 3.474998 96.400002 24.181831 96.400002 49.724998 C 96.400002 75.268173 75.693169 95.974998 50.150002 95.974998 C 24.606831 95.974998 3.9 75.268173 3.9 49.724998 C 3.9 24.181831 24.606831 3.474998 50.150002 3.474998 Z"/>
</svg>